PathFileType	4	(X/Y/Z)	C:\Users\Biomechanik\SynologyDrive\AlexP\Athlete_03\Athlete_3_25_03_31\Deadlift_bw_02\marker_experimental.trc
DataRate	CameraRate	NumFrames	NumMarkers	Units	OrigDataRate	OrigDataStartFrame	OrigNumFrames
200.000000	200.000000	4	55	mm	200.000000	225	1804
Frame#	Time	BL			BR			GLAB			RFHD			LFHD			C7			T6			SPINMOL			SPINM2			SPINM3			T12			BELTOL			BELT2			BELT3			SACROL			SACR2			SACR3			LTHOL			LTH2			LTH3			LSHAOL			LSHA2			LSHA3			LHEE			LTOE			LM5			RTHOL			RTH2			RTH3			RSHAOL			RSHA2			RSHA3			RHEE			RTOE			RM5			STRN			XIPH			LACR			LUAOL			LUA2			LUA3			LLAOL			LLA2			LLA3			LWRR			LWRU			RACR			RUAOL			RUA2			RUA3			RLAOL			RLA2			RLA3			RWRR			RWRU			
		X1	Y1	Z1	X2	Y2	Z2	X3	Y3	Z3	X4	Y4	Z4	X5	Y5	Z5	X6	Y6	Z6	X7	Y7	Z7	X8	Y8	Z8	X9	Y9	Z9	X10	Y10	Z10	X11	Y11	Z11	X12	Y12	Z12	X13	Y13	Z13	X14	Y14	Z14	X15	Y15	Z15	X16	Y16	Z16	X17	Y17	Z17	X18	Y18	Z18	X19	Y19	Z19	X20	Y20	Z20	X21	Y21	Z21	X22	Y22	Z22	X23	Y23	Z23	X24	Y24	Z24	X25	Y25	Z25	X26	Y26	Z26	X27	Y27	Z27	X28	Y28	Z28	X29	Y29	Z29	X30	Y30	Z30	X31	Y31	Z31	X32	Y32	Z32	X33	Y33	Z33	X34	Y34	Z34	X35	Y35	Z35	X36	Y36	Z36	X37	Y37	Z37	X38	Y38	Z38	X39	Y39	Z39	X40	Y40	Z40	X41	Y41	Z41	X42	Y42	Z42	X43	Y43	Z43	X44	Y44	Z44	X45	Y45	Z45	X46	Y46	Z46	X47	Y47	Z47	X48	Y48	Z48	X49	Y49	Z49	X50	Y50	Z50	X51	Y51	Z51	X52	Y52	Z52	X53	Y53	Z53	X54	Y54	Z54	X55	Y55	Z55	

226	1.125	1214.250610351562	39.25168609619155	-2269.24609375	1226.856811523438	29.83744049072267	-248.8181762695312	639.2076416015625	1036.743408203125	-1218.070068359375	621.2914428710938	1088.272338867188	-1154.132202148438	618.888916015625	1081.99853515625	-1290.564208984375	369.8755187988281	1087.115600585938	-1215.003173828125	200.4837036132812	1036.854370117188	-1212.915649414062	165.4931640625	1020.426086425781	-1234.072875976562	158.5319061279297	1015.267822265625	-1184.479370117188	113.4452819824219	981.9069824218751	-1220.321533203125	67.82071685791016	932.4904785156251	-1216.427612304688	28.11464691162109	926.5433349609376	-1229.463623046875	28.86239242553711	922.6555175781251	-1179.249877929688	-17.47404289245605	883.9315795898439	-1207.192749023438	-97.75764465332031	793.5020751953126	-1230.744873046875	-94.42567443847656	789.2714233398439	-1179.660400390625	-123.2971267700195	736.5388793945314	-1207.651733398438	118.0227966308594	524.5247192382814	-1426.098876953125	134.0567169189453	451.4613342285157	-1401.080078125	165.65234375	486.6328735351564	-1419.465209960938	229.2265014648438	294.6860961914064	-1437.678466796875	164.4337158203125	250.0006561279298	-1424.000244140625	212.5925140380859	236.0687561035157	-1427.4755859375	77.57759857177734	69.29601287841805	-1319.713623046875	294.4176330566406	47.51406097412117	-1330.721923828125	242.384033203125	29.4629554748536	-1431.254760742188	113.2009048461914	519.1832885742189	-1003.327453613281	190.3255004882812	532.2387695312501	-985.2172241210938	169.2462768554688	491.7399902343751	-1006.118286132812	228.6873321533203	312.3009033203126	-993.815673828125	238.1460418701172	234.8295593261719	-1001.020141601562	196.3256072998047	260.5778198242188	-1006.791076660156	77.62506103515625	63.93939208984382	-1115.63720703125	289.6564025878906	47.10735702514656	-1104.359497070312	237.0729064941406	39.70392990112311	-1003.797729492188	408.0634155273438	893.2689208984376	-1218.95947265625	297.9638977050781	792.0743408203126	-1215.180053710938	418.0146484375	971.3917236328126	-1382.082275390625	389.537841796875	825.1992187500001	-1478.28759765625	366.7436828613281	770.4381713867189	-1506.416015625	395.3733825683594	761.6010131835939	-1465.575927734375	347.2539672851562	563.7867431640626	-1523.068481445312	290.212890625	508.9112548828126	-1526.8603515625	339.320556640625	503.2315673828126	-1519.955444335938	333.3888244628906	398.0100402832032	-1512.902954101562	349.7344360351562	399.8564758300782	-1435.043579101562	432.4193115234375	964.8279418945314	-1062.13427734375	400.0063171386719	828.8490600585939	-965.0717163085938	402.4527587890625	764.5187988281251	-961.6928100585938	371.4817504882812	782.1305541992188	-927.7122192382812	350.4533996582031	559.5682983398438	-902.9646606445312	395.630126953125	494.1239929199219	-908.7730712890625	346.3263854980469	496.8074340820313	-903.5396728515625	363.6961975097656	407.1976318359376	-909.7341918945312	355.08349609375	390.8658142089844	-976.4829711914062	
227	1.13	1214.250732421875	39.2515144348146	-2269.24658203125	1226.857055664062	29.83781051635744	-248.8172607421875	639.4151000976562	1034.607055664062	-1218.114990234375	621.510498046875	1086.133911132812	-1154.178466796875	619.0829467773438	1079.858520507812	-1290.609497070312	370.1460266113281	1085.129272460938	-1214.99658203125	200.7378387451172	1035.0966796875	-1212.851928710938	165.7160491943359	1018.727416992188	-1234.019897460938	158.7328033447266	1013.5634765625	-1184.440795898438	113.6113739013672	980.2918090820314	-1220.27099609375	67.897705078125	930.9567871093751	-1216.387939453125	28.22886085510254	925.0892944335939	-1229.391845703125	28.98086166381836	921.1886596679689	-1179.18017578125	-17.36384963989258	882.4872436523439	-1207.111328125	-97.91958618164062	791.9982910156251	-1230.72119140625	-94.57382202148438	787.7597045898439	-1179.635864257812	-123.4575424194336	735.0373535156251	-1207.629760742188	118.2353286743164	523.6016235351564	-1426.165649414062	134.4706115722656	450.5711669921876	-1401.240112304688	165.9701690673828	485.8492431640626	-1419.589111328125	229.6171264648438	294.4834899902345	-1437.754150390625	164.7509918212891	249.9016113281251	-1424.074462890625	212.8885803222656	235.899154663086	-1427.532348632812	77.59848022460938	69.3134307861329	-1319.71240234375	294.4253845214844	47.5060234069825	-1330.71923828125	242.3834991455078	29.4614028930665	-1431.259155273438	113.5127029418945	518.1904296875001	-1003.322387695312	190.5999145507812	531.5040893554689	-985.2144165039062	169.6456298828125	490.9283142089844	-1006.113098144531	229.156494140625	312.1103820800782	-993.8523559570312	238.4792022705078	234.6396942138672	-1001.063842773438	196.7010498046875	260.4382629394532	-1006.821105957031	77.64720916748047	63.95981597900398	-1115.658813476562	289.6411437988281	47.09430694580085	-1104.37744140625	237.0760040283203	39.70640945434577	-1003.798828125	408.2129821777344	891.2194824218751	-1218.973999023438	297.9546813964844	790.1683959960939	-1215.220581054688	418.2438659667969	969.3443603515626	-1382.059692382812	389.8263244628906	823.1356201171876	-1478.202758789062	367.0697021484375	768.3565673828126	-1506.299194335938	395.6630554199219	759.5180053710939	-1465.42431640625	347.5730590820312	561.6723022460939	-1522.79296875	290.4955749511719	506.8503417968751	-1526.715942382812	339.5782165527344	501.1348571777345	-1519.690063476562	333.5570678710938	395.9107666015626	-1512.597534179688	349.6242370605469	397.7612609863282	-1434.705078125	432.73388671875	962.7614746093751	-1062.201049804688	400.4501953125	826.7667236328126	-965.1605224609375	402.8848571777344	762.4234008789064	-961.8009643554688	372.0046997070312	780.0451049804688	-927.7449340820312	350.8499450683594	557.520263671875	-902.9561767578125	395.9432983398438	492.0281066894532	-908.8616333007812	346.6457214355469	494.7636413574219	-903.48974609375	363.8785095214844	405.1232910156251	-909.6757202148438	355.2320556640625	388.9132385253907	-976.8855590820312	
228	1.135	1214.250732421875	39.25125122070327	-2269.247314453125	1226.85693359375	29.83816719055177	-248.8163452148438	639.618408203125	1032.501953125	-1218.161376953125	621.7252807617188	1084.025268554688	-1154.225830078125	619.2714233398438	1077.7509765625	-1290.654907226562	370.4092407226562	1083.169555664062	-1214.98779296875	200.9880065917969	1033.357299804688	-1212.787719726562	165.9355163574219	1017.046569824219	-1233.966918945312	158.9305267333984	1011.875305175781	-1184.403564453125	113.7746276855469	978.6913452148439	-1220.22119140625	67.97576141357422	929.4371948242189	-1216.349243164062	28.34697532653809	923.6496582031251	-1229.326049804688	29.10371017456055	919.7354125976564	-1179.113525390625	-17.24160003662109	881.0578613281251	-1207.030639648438	-98.07500457763672	790.5015869140626	-1230.704223632812	-94.71553039550781	786.2564697265626	-1179.618041992188	-123.6094741821289	733.5433349609376	-1207.612670898438	118.4513549804688	522.6739501953126	-1426.22509765625	134.8880615234375	449.6804809570314	-1401.39013671875	166.2908935546875	485.0628356933595	-1419.704833984375	230.0045776367188	294.2831115722657	-1437.825927734375	165.0662384033203	249.8040466308595	-1424.14404296875	213.1824493408203	235.7312164306641	-1427.585693359375	77.6207275390625	69.3320846557618	-1319.712280273438	294.4332885742188	47.49771499633797	-1330.716430664062	242.3825988769531	29.46121597290048	-1431.263549804688	113.8285140991211	517.2029418945314	-1003.319152832031	190.8776702880859	530.7717895507814	-985.2133178710938	170.0471343994141	490.1209106445313	-1006.109497070312	229.6228332519531	311.9228210449219	-993.8841552734375	238.8090972900391	234.4490966796876	-1001.111389160156	197.0742645263672	260.2993774414063	-1006.8525390625	77.66847229003906	63.98044967651374	-1115.6796875	289.6275024414062	47.08638763427741	-1104.39208984375	237.0791625976562	39.70841217041022	-1003.799865722656	408.3627014160156	889.1978149414064	-1218.989501953125	297.9506225585938	788.2855224609376	-1215.264404296875	418.4666137695312	967.3289794921876	-1382.037475585938	390.1110534667969	821.1028442382814	-1478.117553710938	367.3910827636719	766.3055419921876	-1506.180297851562	395.9502258300781	757.4672851562501	-1465.27294921875	347.8920593261719	559.5911254882814	-1522.52587890625	290.7804565429688	504.8199157714845	-1526.574096679688	339.8371887207031	499.0692138671876	-1519.427612304688	333.7296142578125	393.8428955078126	-1512.297729492188	349.5218200683594	395.701141357422	-1434.369750976562	433.0433349609375	960.7253417968751	-1062.268798828125	400.8901672363281	824.7097778320314	-965.2515258789062	403.3146667480469	760.3497924804689	-961.9127197265625	372.5217895507812	777.9835815429688	-927.7835083007812	351.2422180175781	555.4959106445312	-902.9581909179688	396.250732421875	489.9541015625001	-908.9577026367188	346.9615478515625	492.7430725097657	-903.4514770507812	364.0602111816406	403.0736999511719	-909.6292724609375	355.4866638183594	387.0540466308594	-977.5078735351562	
229	1.14	1214.250732421875	39.25095367431655	-2269.247802734375	1226.856811523438	29.8384304046631	-248.8156127929688	639.8171997070312	1030.428955078125	-1218.209106445312	621.9353637695312	1081.946899414062	-1154.27392578125	619.4541015625	1075.676513671875	-1290.700439453125	370.6649169921875	1081.236938476562	-1214.9765625	201.2338714599609	1031.636840820312	-1212.72265625	166.1513824462891	1015.383911132813	-1233.9130859375	159.1248474121094	1010.203369140625	-1184.366943359375	113.9339904785156	977.1054687500001	-1220.172607421875	68.05483245849609	927.9317626953126	-1216.3115234375	28.46832084655762	922.2252197265626	-1229.265869140625	29.23068809509277	918.2958374023439	-1179.050048828125	-17.10871315002441	879.6436767578126	-1206.95068359375	-98.22376251220703	789.0119018554689	-1230.693359375	-94.85141754150391	784.7619018554689	-1179.606201171875	-123.7526779174805	732.0564575195314	-1207.60009765625	118.6700134277344	521.7422485351564	-1426.277465820312	135.3093872070312	448.7890930175782	-1401.529541015625	166.6144104003906	484.2735595703126	-1419.81298828125	230.3881988525391	294.0853881835939	-1437.893798828125	165.3790435791016	249.7083740234376	-1424.208740234375	213.4734954833984	235.5652923583985	-1427.636108398438	77.64424896240234	69.3523483276368	-1319.713500976562	294.44140625	47.48923492431648	-1330.713256835938	242.3811950683594	29.4626007080079	-1431.2685546875	114.1482467651367	516.2211303710939	-1003.31787109375	191.1586456298828	530.0418090820314	-985.2149658203125	170.45068359375	489.3176879882813	-1006.107788085938	230.0865173339844	311.7379760742188	-993.9115600585938	239.1357879638672	234.2569122314454	-1001.163696289062	197.4454193115234	260.1610717773438	-1006.885620117188	77.68887329101562	64.00123596191413	-1115.699829101562	289.6158447265625	47.0827941894532	-1104.40380859375	237.0823974609375	39.71001434326178	-1003.800903320312	408.5125122070312	887.2045288085939	-1219.005981445312	297.9515991210938	786.4262084960939	-1215.311401367188	418.6830444335938	965.3460083007814	-1382.015747070312	390.3920593261719	819.1006469726564	-1478.03125	367.7077941894531	764.2840576171876	-1506.05859375	396.2345886230469	755.4502563476564	-1465.1220703125	348.2110595703125	557.5433959960939	-1522.266357421875	291.0675659179688	502.8200073242189	-1526.4345703125	340.0974731445312	497.0350341796876	-1519.16748046875	333.90625	391.806854248047	-1512.003540039062	349.4286193847656	393.6766052246095	-1434.037841796875	433.34814453125	958.7196655273439	-1062.33740234375	401.325439453125	822.6788940429689	-965.3441162109375	403.74169921875	758.2988281250001	-962.027587890625	373.0323791503906	775.9466552734375	-927.82763671875	351.6298828125	553.49560546875	-902.9703979492188	396.5512084960938	487.9016418457032	-909.0613403320312	347.2735290527344	490.7460632324219	-903.4248657226562	364.2412719726562	401.0494995117188	-909.5951538085938	355.8323364257812	385.2793579101563	-978.3196411132812	
